<svg width="13" height="16" viewBox="0 0 13 16" fill="none" xmlns="http://www.w3.org/2000/svg">
<path d="M6.40006 6.27439C7.45597 6.27439 8.32759 5.46308 8.42087 4.42015C8.4363 4.24761 8.30961 4.09514 8.13787 4.07961C7.96638 4.0644 7.81443 4.19148 7.79901 4.36403C7.73361 5.0954 7.13219 5.64695 6.40006 5.64695C5.66793 5.64695 5.06652 5.0954 5.00111 4.364C4.98569 4.19142 4.83359 4.06411 4.66226 4.07958C4.49052 4.09508 4.3638 4.24758 4.37925 4.42012C4.47263 5.46437 5.34553 6.27439 6.40006 6.27439ZM4.37079 10.9802H8.42933C8.60173 10.9802 8.74153 10.8397 8.74153 10.6664C8.74153 10.4932 8.60173 10.3527 8.42933 10.3527H4.37079C4.19836 10.3527 4.05859 10.4932 4.05859 10.6664C4.05859 10.8397 4.19836 10.9802 4.37079 10.9802Z" fill="#EE832E"/>
<path d="M11.7073 9.72528H10.3025V6.27437C10.3025 5.06348 9.3221 4.07834 8.11709 4.07834H7.98968C8.45164 3.6483 8.74148 3.0341 8.74148 2.35289C8.74148 1.05548 7.6911 0 6.40001 0C5.10893 0 4.05854 1.05551 4.05854 2.35289C4.05854 3.0341 4.34839 3.64827 4.81034 4.07834H4.68294C3.47792 4.07834 2.49757 5.06348 2.49757 6.27437V9.72528H1.09269C0.488618 9.72528 0 10.2161 0 10.8233C0 11.4287 0.490179 11.9213 1.09269 11.9213H1.86318C2.03558 11.9213 2.17538 11.7809 2.17538 11.6076C2.17538 11.4344 2.03558 11.2939 1.86318 11.2939H1.09269C0.834468 11.2939 0.624391 11.0828 0.624391 10.8233C0.624391 10.5631 0.833625 10.3527 1.09269 10.3527H2.80976C2.98216 10.3527 3.12196 10.2123 3.12196 10.039V7.84297H4.05854V10.6664C4.05854 11.0124 3.77844 11.2939 3.43415 11.2939H3.04016C2.86777 11.2939 2.72797 11.4344 2.72797 11.6076C2.72797 11.7809 2.86777 11.9213 3.04016 11.9213H3.43415C4.12273 11.9213 4.68294 11.3584 4.68294 10.6664V7.52925C4.68294 7.35598 4.54317 7.21553 4.37074 7.21553H3.12196V6.27437C3.12196 5.40945 3.82221 4.70578 4.68294 4.70578H8.11709C8.97781 4.70578 9.67807 5.40945 9.67807 6.27437V7.21553H8.42929C8.25689 7.21553 8.11709 7.35598 8.11709 7.52925V10.6664C8.11709 11.3584 8.67729 11.9213 9.36587 11.9213H9.75986C9.93229 11.9213 10.0721 11.7809 10.0721 11.6076C10.0721 11.4344 9.93229 11.2939 9.75986 11.2939H9.36587C9.02158 11.2939 8.74148 11.0124 8.74148 10.6664V7.84297H9.67807V10.039C9.67807 10.2123 9.81787 10.3527 9.99026 10.3527H11.7073C11.9656 10.3527 12.1756 10.5638 12.1756 10.8233C12.1756 11.0835 11.9664 11.2939 11.7073 11.2939H10.9368C10.7644 11.2939 10.6246 11.4344 10.6246 11.6076C10.6246 11.7809 10.7644 11.9213 10.9368 11.9213H11.7073C12.3114 11.9213 12.8 11.4305 12.8 10.8233C12.8 10.2179 12.3098 9.72528 11.7073 9.72528ZM4.68294 2.35289C4.68294 1.40148 5.45322 0.627437 6.40001 0.627437C7.34681 0.627437 8.11709 1.40148 8.11709 2.35289C8.11709 3.30431 7.34681 4.07834 6.40001 4.07834C5.45322 4.07834 4.68294 3.30431 4.68294 2.35289Z" fill="#007D8F"/>
<path d="M10.7682 13.8349L9.90575 13.5494L10.7682 13.264C11.3283 13.0786 11.6199 12.4571 11.4561 11.8853C11.2862 11.2902 10.6919 10.9695 10.1458 11.1496L6.39973 12.3892L2.65432 11.1497C2.08993 10.9628 1.50862 11.3087 1.34391 11.8853C1.17816 12.4652 1.48677 13.0836 2.03177 13.2639L2.89437 13.5494L2.03158 13.8348C1.48658 14.0156 1.1781 14.6341 1.34391 15.2134C1.51003 15.795 2.09421 16.1347 2.65419 15.9491L6.40004 14.7095L10.1457 15.9491C10.7095 16.1358 11.2912 15.7908 11.4561 15.2136C11.6218 14.6337 11.3132 14.0152 10.7682 13.8349ZM10.3408 11.7456C10.6091 11.6572 10.8769 11.8897 10.8769 12.2071C10.8769 12.4192 10.7518 12.6088 10.5728 12.668L8.90782 13.2192L7.39782 12.7194L10.3408 11.7456ZM2.45873 15.3532C2.33479 15.3943 2.23173 15.3619 2.16714 15.3276C2.05993 15.2706 1.98069 15.1686 1.94404 15.0402C1.87099 14.785 2.0007 14.5058 2.22708 14.4307L3.89252 13.8797L5.40195 14.3793L2.45873 15.3532ZM10.8559 15.0404C10.7886 15.276 10.5667 15.4278 10.341 15.3532L2.22702 12.668C2.00061 12.593 1.87099 12.314 1.94401 12.0585V12.0584C2.0116 11.8219 2.2332 11.671 2.45895 11.7456C2.77629 11.8507 10.3031 14.3415 10.5729 14.4308C10.7993 14.5057 10.9289 14.7849 10.8559 15.0404Z" fill="#EE832E"/>
</svg>
