<svg width="15" height="15" viewBox="0 0 15 15" fill="none" xmlns="http://www.w3.org/2000/svg">
<g clip-path="url(#clip0_76_68)">
<path d="M5 7.5C3.96594 7.5 3.125 6.65906 3.125 5.625C3.125 4.59094 3.96594 3.75 5 3.75C6.03406 3.75 6.875 4.59094 6.875 5.625C6.875 6.65906 6.03406 7.5 5 7.5ZM5 4.375C4.31063 4.375 3.75 4.93563 3.75 5.625C3.75 6.31437 4.31063 6.875 5 6.875C5.68938 6.875 6.25 6.31437 6.25 5.625C6.25 4.93563 5.68938 4.375 5 4.375ZM9.53125 5.625C7.98031 5.625 6.71875 4.36312 6.71875 2.8125C6.71875 1.26188 7.98031 0 9.53125 0C11.0822 0 12.3438 1.26188 12.3438 2.8125C12.3438 4.36312 11.0822 5.625 9.53125 5.625ZM9.53125 0.625C8.32531 0.625 7.34375 1.60625 7.34375 2.8125C7.34375 4.01875 8.32531 5 9.53125 5C10.7372 5 11.7188 4.01875 11.7188 2.8125C11.7188 1.60625 10.7372 0.625 9.53125 0.625Z" fill="#EE832E"/>
<path d="M8.90594 2.49997C8.85906 2.49997 8.81125 2.48935 8.76656 2.46716L8.14156 2.15466C7.98719 2.07747 7.92469 1.88966 8.00187 1.73529C8.07906 1.5806 8.26687 1.5181 8.42125 1.5956L9.04625 1.9081C9.20062 1.98529 9.26312 2.1731 9.18594 2.32747C9.13094 2.43685 9.02062 2.49997 8.90594 2.49997ZM10.1566 2.49997C10.0419 2.49997 9.93156 2.43685 9.87656 2.32716C9.79937 2.17279 9.86187 1.98497 10.0162 1.90779L10.6412 1.59529C10.7956 1.51779 10.9834 1.5806 11.0606 1.73497C11.1378 1.88935 11.0753 2.07716 10.9209 2.15435L10.2959 2.46685C10.2512 2.48935 10.2034 2.49997 10.1566 2.49997ZM7.1875 11.25H2.8125C2.64 11.25 2.5 11.11 2.5 10.9375V9.37497C2.5 7.99654 3.62156 6.87497 5 6.87497C6.37844 6.87497 7.5 7.99654 7.5 9.37497V10.9375C7.5 11.11 7.36 11.25 7.1875 11.25ZM3.125 10.625H6.875V9.37497C6.875 8.34091 6.03406 7.49997 5 7.49997C3.96594 7.49997 3.125 8.34091 3.125 9.37497V10.625ZM10.1562 4.06247H8.90625C8.73344 4.06247 8.59375 3.92247 8.59375 3.74997C8.59375 3.57747 8.73344 3.43747 8.90625 3.43747H10.1562C10.3291 3.43747 10.4687 3.57747 10.4687 3.74997C10.4687 3.92247 10.3291 4.06247 10.1562 4.06247ZM11.25 12.5H5.9375C5.765 12.5 5.625 12.36 5.625 12.1875C5.625 12.015 5.765 11.875 5.9375 11.875H11.25C11.4228 11.875 11.5625 12.015 11.5625 12.1875C11.5625 12.36 11.4228 12.5 11.25 12.5ZM9.0625 13.75H3.75C3.5775 13.75 3.4375 13.61 3.4375 13.4375C3.4375 13.265 3.5775 13.125 3.75 13.125H9.0625C9.23531 13.125 9.375 13.265 9.375 13.4375C9.375 13.61 9.23531 13.75 9.0625 13.75Z" fill="#007D8F"/>
<path d="M13.4375 15H1.5625C1.39 15 1.25 14.86 1.25 14.6875V10.9375C1.25 10.765 1.39 10.625 1.5625 10.625H10.7972L13.2041 7.91717C13.2903 7.8203 13.4269 7.78655 13.5488 7.8328C13.6697 7.87905 13.75 7.9953 13.75 8.12499V14.6875C13.75 14.86 13.6103 15 13.4375 15ZM1.875 14.375H13.125V8.94686L11.1709 11.145C11.1119 11.2119 11.0266 11.25 10.9375 11.25H1.875V14.375Z" fill="#007D8F"/>
<path d="M4.6875 12.5H3.75C3.5775 12.5 3.4375 12.36 3.4375 12.1875C3.4375 12.015 3.5775 11.875 3.75 11.875H4.6875C4.86 11.875 5 12.015 5 12.1875C5 12.36 4.86 12.5 4.6875 12.5ZM11.25 13.75H10.3125C10.1397 13.75 10 13.61 10 13.4375C10 13.265 10.1397 13.125 10.3125 13.125H11.25C11.4228 13.125 11.5625 13.265 11.5625 13.4375C11.5625 13.61 11.4228 13.75 11.25 13.75Z" fill="#EE832E"/>
</g>
<defs>
<clipPath id="clip0_76_68">
<rect width="15" height="15" fill="white"/>
</clipPath>
</defs>
</svg>
