<svg width="17" height="17" viewBox="0 0 17 17" fill="none" xmlns="http://www.w3.org/2000/svg">
<path d="M6.37503 16.6458C5.59587 16.6458 4.95837 16.0791 4.95837 15.4062C4.95837 15.1583 5.34796 12.3958 6.37503 12.3958C7.40211 12.3958 7.79169 15.1583 7.79169 15.4062C7.79169 16.0791 7.1542 16.6458 6.37503 16.6458ZM6.37503 13.1396C6.0917 13.3875 5.6667 14.9104 5.6667 15.4062C5.6667 15.6895 5.98545 15.9375 6.37503 15.9375C6.76461 15.9375 7.08336 15.6895 7.08336 15.4062C7.08336 14.875 6.65836 13.3875 6.37503 13.1396Z" fill="#EE832E"/>
<path d="M8.49995 16.9999C3.82498 16.9999 0 13.1749 0 8.49995C0 3.82498 3.82498 0 8.49995 0C13.1749 0 16.9999 3.82498 16.9999 8.49995C16.9999 13.1749 13.1749 16.9999 8.49995 16.9999ZM8.49995 0.708329C4.21456 0.708329 0.708329 4.21456 0.708329 8.49995C0.708329 12.7853 4.21456 16.2916 8.49995 16.2916C12.7853 16.2916 16.2916 12.7853 16.2916 8.49995C16.2916 4.21456 12.7853 0.708329 8.49995 0.708329Z" fill="#007D8F"/>
<path d="M14.5256 6.10441e-05C14.4317 6.10441e-05 14.3416 0.0373748 14.2752 0.103794C14.2088 0.170212 14.1715 0.260295 14.1715 0.354226C14.1715 0.448156 14.2088 0.538239 14.2752 0.604658C14.3416 0.671077 14.4317 0.70839 14.5256 0.70839H15.478L14.3291 1.47622C14.2658 1.51839 14.2178 1.57979 14.1922 1.65135C14.1665 1.72291 14.1645 1.80082 14.1866 1.87357C14.2086 1.94632 14.2535 2.01005 14.3145 2.05534C14.3756 2.10062 14.4496 2.12507 14.5256 2.12505H15.9391C16.033 2.12505 16.1231 2.08774 16.1895 2.02132C16.2559 1.9549 16.2933 1.86481 16.2933 1.77088C16.2933 1.67695 16.2559 1.58687 16.1895 1.52045C16.1231 1.45403 16.033 1.41672 15.9391 1.41672H15.6937L16.8422 0.648891C16.9055 0.606719 16.9535 0.545317 16.9791 0.473761C17.0048 0.402205 17.0067 0.324292 16.9847 0.251541C16.9626 0.17879 16.9178 0.11506 16.8567 0.0697729C16.7957 0.0244856 16.7217 4.39854e-05 16.6456 6.10441e-05H14.5256ZM11.6923 2.47921C11.5984 2.47921 11.5083 2.51653 11.4419 2.58295C11.3754 2.64937 11.3381 2.73945 11.3381 2.83338C11.3381 2.92731 11.3754 3.01739 11.4419 3.08381C11.5083 3.15023 11.5984 3.18754 11.6923 3.18754H12.2476L11.4412 4.00035C11.3919 4.04998 11.3583 4.11312 11.3448 4.18179C11.3314 4.25046 11.3385 4.32158 11.3654 4.38619C11.3923 4.45079 11.4378 4.50598 11.496 4.54478C11.5542 4.58358 11.6227 4.60426 11.6927 4.6042H13.099C13.193 4.6042 13.2831 4.56689 13.3495 4.50047C13.4159 4.43405 13.4532 4.34397 13.4532 4.25004C13.4532 4.15611 13.4159 4.06602 13.3495 3.99961C13.2831 3.93319 13.193 3.89587 13.099 3.89587H12.5437L13.3501 3.08306C13.3995 3.03343 13.433 2.9703 13.4465 2.90163C13.46 2.83296 13.4528 2.76183 13.4259 2.69723C13.399 2.63263 13.3536 2.57744 13.2953 2.53864C13.2371 2.49984 13.1687 2.47916 13.0987 2.47921H11.6923Z" fill="#EE832E"/>
<path d="M11.3333 7.43755C10.3417 7.43755 9.56251 6.65839 9.56251 5.66673C9.56251 5.45423 9.70418 5.31256 9.91667 5.31256C10.1292 5.31256 10.2708 5.45423 10.2708 5.66673C10.2708 6.23339 10.7313 6.72922 11.3333 6.72922C11.9354 6.72922 12.3958 6.26881 12.3958 5.66673C12.3958 5.45423 12.5375 5.31256 12.75 5.31256C12.9625 5.31256 13.1042 5.45423 13.1042 5.66673C13.1042 6.65839 12.325 7.43755 11.3333 7.43755ZM5.6667 7.43755C4.67504 7.43755 3.89587 6.65839 3.89587 5.66673C3.89587 5.45423 4.03754 5.31256 4.25004 5.31256C4.46254 5.31256 4.6042 5.45423 4.6042 5.66673C4.6042 6.23339 5.06462 6.72922 5.6667 6.72922C6.26878 6.72922 6.72919 6.26881 6.72919 5.66673C6.72919 5.45423 6.87086 5.31256 7.08336 5.31256C7.29586 5.31256 7.43752 5.45423 7.43752 5.66673C7.43752 6.65839 6.65836 7.43755 5.6667 7.43755Z" fill="#EE832E"/>
<path d="M8.50002 9.20831C7.2785 9.20831 6.17032 9.45127 5.33662 9.86812C4.50327 10.285 3.89587 10.9094 3.89587 11.6875C3.89587 12.0767 4.07437 12.4287 4.35098 12.6703C4.62758 12.9122 4.9867 13.0659 5.40249 13.1781C5.5183 13.2093 5.63978 13.2362 5.7648 13.261L6.09701 12.5977C5.92544 12.5713 5.75524 12.5367 5.58701 12.4939C5.23391 12.3986 4.97076 12.2711 4.81741 12.1373C4.6637 12.0027 4.6042 11.8851 4.6042 11.6875C4.6042 11.2922 4.94881 10.8541 5.65359 10.5017C6.35838 10.1497 7.37377 9.91664 8.50002 9.91664C9.62626 9.91664 10.642 10.1497 11.3464 10.5017C12.0512 10.8541 12.3958 11.2922 12.3958 11.6875C12.3958 11.8851 12.3363 12.003 12.1826 12.1373C12.0293 12.2711 11.7661 12.3986 11.413 12.4939C10.7061 12.6848 9.66132 12.75 8.50002 12.75C7.8225 12.75 7.19563 12.7234 6.64136 12.6671L6.95834 13.4098C7.47151 13.4439 7.98571 13.4601 8.50002 13.4583C9.68576 13.4583 10.766 13.4023 11.5975 13.1785C12.0133 13.0659 12.3725 12.9122 12.6491 12.6703C12.9257 12.4287 13.1042 12.077 13.1042 11.6875C13.1042 10.9094 12.4968 10.285 11.6634 9.86812C10.8297 9.45162 9.72153 9.20831 8.50002 9.20831Z" fill="#007D8F"/>
</svg>
