<svg width="15" height="15" viewBox="0 0 15 15" fill="none" xmlns="http://www.w3.org/2000/svg">
<path d="M8.03672 9.30701C8.12813 9.39841 8.27813 9.39841 8.36719 9.30701C8.45859 9.2156 8.45859 9.06794 8.36719 8.97654C8.17734 8.78669 7.85156 8.67419 7.49766 8.67419C7.14375 8.67419 6.81797 8.78669 6.62812 8.97654C6.53672 9.06794 6.53672 9.2156 6.62812 9.30701C6.67266 9.35154 6.73359 9.37498 6.79453 9.37498C6.85547 9.37498 6.91406 9.35154 6.96094 9.30701C7.03828 9.22966 7.22344 9.1406 7.49766 9.1406C7.77187 9.1406 7.95937 9.22966 8.03437 9.30701H8.03672Z" fill="#EE832E"/>
<path d="M10.0781 11.4844H8.67186V10.5469C8.83827 10.4766 8.99764 10.3922 9.14764 10.2937C9.42889 10.4578 9.74764 10.5469 10.0781 10.5469C11.1117 10.5469 11.9531 9.70547 11.9531 8.67188C11.9531 8.10703 11.6953 7.58203 11.2687 7.22813C11.4 7.08281 11.4844 6.89062 11.4844 6.67969C11.4844 6.45469 11.393 6.25312 11.2476 6.10547C11.2476 6.10078 11.2476 6.09844 11.2476 6.09375V5.15625C11.2476 3.08906 9.56483 1.40625 7.49764 1.40625C5.43046 1.40625 3.74764 3.08906 3.74764 5.15625V6.09375C3.74764 6.09375 3.74764 6.10078 3.74764 6.10547C3.60233 6.25312 3.51093 6.45703 3.51093 6.67969C3.51093 6.89062 3.59296 7.08281 3.72655 7.22813C3.29999 7.57969 3.04218 8.10469 3.04218 8.67188C3.04218 9.70547 3.88358 10.5469 4.91718 10.5469C5.24764 10.5469 5.56639 10.4578 5.84764 10.2937C5.99764 10.3898 6.15702 10.4766 6.32343 10.5469V11.4844H4.91718C3.75468 11.4844 2.8078 12.4312 2.8078 13.5938V14.2969C2.8078 14.4258 2.91327 14.5312 3.04218 14.5312C3.17108 14.5312 3.27655 14.4258 3.27655 14.2969V13.5938C3.27655 12.6891 4.01249 11.9531 4.91718 11.9531V12.6562C4.91718 13.043 5.23358 13.3594 5.6203 13.3594H9.3703C9.75702 13.3594 10.0734 13.043 10.0734 12.6562V11.9531C10.9781 11.9531 11.7141 12.6891 11.7141 13.5938V14.2969C11.7141 14.4258 11.8195 14.5312 11.9484 14.5312C12.0773 14.5312 12.1828 14.4258 12.1828 14.2969V13.5938C12.1828 12.4312 11.2359 11.4844 10.0734 11.4844H10.0781ZM11.4844 8.67188C11.4844 9.44766 10.8539 10.0781 10.0781 10.0781C9.89764 10.0781 9.72186 10.0406 9.5578 9.975C10.1648 9.41719 10.5469 8.62031 10.5469 7.73438V7.5H10.6641C10.7203 7.5 10.7742 7.49531 10.8258 7.48359C11.2336 7.74141 11.4844 8.18672 11.4844 8.67188ZM11.0156 6.67969C11.0156 6.87422 10.8586 7.03125 10.6641 7.03125H10.5469V6.32812H10.6641C10.8586 6.32812 11.0156 6.48516 11.0156 6.67969ZM4.21874 5.15625C4.21874 3.34688 5.69061 1.875 7.49999 1.875C9.30936 1.875 10.7812 3.34688 10.7812 5.15625V5.85938H10.3476C9.64921 5.85938 8.99296 5.55234 8.54764 5.01562L8.14921 4.5375C8.10468 4.48359 8.03905 4.45312 7.96874 4.45312C7.96405 4.45312 7.95936 4.45312 7.95702 4.45312C7.88436 4.45781 7.81639 4.49531 7.77421 4.55625L7.60311 4.81406C7.16718 5.46797 6.43827 5.85703 5.65311 5.85703H4.22108V5.15391L4.21874 5.15625ZM4.33593 6.32812H4.45311V7.03125H4.33593C4.14139 7.03125 3.98436 6.87422 3.98436 6.67969C3.98436 6.48516 4.14139 6.32812 4.33593 6.32812ZM4.92186 10.0781C4.14608 10.0781 3.51561 9.44766 3.51561 8.67188C3.51561 8.18672 3.76639 7.74141 4.17421 7.48359C4.22577 7.49297 4.27968 7.5 4.33593 7.5H4.45311V7.73438C4.45311 8.62031 4.83514 9.41719 5.44218 9.975C5.27811 10.0406 5.10233 10.0781 4.92186 10.0781ZM4.92186 7.73438V6.32812H5.65077C6.59296 6.32812 7.46718 5.86172 7.98983 5.07891L8.18671 5.31563C8.66483 5.88984 9.34218 6.24141 10.0781 6.31172V7.73203C10.0781 9.15469 8.92264 10.3102 7.49999 10.3102C6.07733 10.3102 4.92186 9.15469 4.92186 7.73203V7.73438ZM9.60936 12.6562C9.60936 12.7852 9.50389 12.8906 9.37499 12.8906H5.62499C5.49608 12.8906 5.39061 12.7852 5.39061 12.6562V11.9531H6.56249C6.69139 11.9531 6.79686 11.8477 6.79686 11.7188V10.6969C7.02186 10.7508 7.25858 10.7812 7.49999 10.7812C7.74139 10.7812 7.97811 10.7508 8.20311 10.6969V11.7188C8.20311 11.8477 8.30858 11.9531 8.43749 11.9531H9.60936V12.6562Z" fill="#007D8F"/>
<path d="M8.36248 7.48828L9.06561 7.72266C9.09139 7.73203 9.11483 7.73438 9.14061 7.73438C9.23905 7.73438 9.33045 7.67344 9.36326 7.575C9.40311 7.45312 9.33748 7.31953 9.21561 7.27734L8.87342 7.1625L9.07498 6.96094C9.16639 6.86953 9.16639 6.72188 9.07498 6.63047C8.98358 6.53906 8.83592 6.53906 8.74451 6.63047L8.27576 7.09922C8.21717 7.15781 8.19373 7.23984 8.21248 7.31953C8.23123 7.39922 8.28983 7.4625 8.36717 7.48828H8.36248ZM6.78983 7.31953C6.80858 7.23984 6.78514 7.15781 6.72655 7.09922L6.2578 6.63047C6.16639 6.53906 6.01873 6.53906 5.92733 6.63047C5.83592 6.72188 5.83592 6.86953 5.92733 6.96094L6.12889 7.1625L5.78436 7.27734C5.66248 7.31719 5.59451 7.45078 5.6367 7.575C5.66951 7.67344 5.76092 7.73438 5.85936 7.73438C5.88279 7.73438 5.90858 7.72969 5.93436 7.72266L6.63748 7.48828C6.71483 7.4625 6.77342 7.39922 6.79217 7.31953H6.78983ZM13.807 2.01328C13.7695 1.92891 13.6851 1.875 13.5937 1.875H12.982L13.3476 0.778125C13.3711 0.705469 13.3594 0.628125 13.3148 0.567188C13.2703 0.50625 13.2 0.46875 13.125 0.46875H11.7187C11.6203 0.46875 11.5336 0.529688 11.4984 0.621094L10.7953 2.49609C10.7672 2.56875 10.7789 2.64844 10.8211 2.71172C10.8656 2.775 10.9359 2.8125 11.0133 2.8125H11.6812L11.4844 4.18594C11.4703 4.28906 11.5242 4.3875 11.618 4.43203C11.6484 4.44609 11.6836 4.45312 11.7164 4.45312C11.782 4.45312 11.8453 4.425 11.8922 4.37344L13.7672 2.26406C13.8281 2.19609 13.8445 2.09766 13.807 2.01328ZM12.0609 3.48047L12.1851 2.61094C12.1945 2.54297 12.1758 2.475 12.1312 2.42344C12.0867 2.37188 12.0211 2.34375 11.9531 2.34375H11.3531L11.8805 0.9375H12.7992L12.4336 2.03438C12.4101 2.10703 12.4219 2.18437 12.4664 2.24531C12.5109 2.30625 12.5812 2.34375 12.6562 2.34375H13.0711L12.0609 3.48047ZM3.28123 4.45312C3.31404 4.45312 3.3492 4.44609 3.37967 4.43203C3.47342 4.3875 3.52733 4.28906 3.51326 4.18594L3.31639 2.8125H3.98436C4.0617 2.8125 4.13436 2.775 4.17654 2.71172C4.22108 2.64844 4.23045 2.56875 4.20233 2.49609L3.4992 0.621094C3.46405 0.529688 3.37733 0.46875 3.27889 0.46875H1.87264C1.79764 0.46875 1.72733 0.503906 1.6828 0.567188C1.63826 0.628125 1.62655 0.707812 1.64998 0.778125L2.01561 1.875H1.40389C1.31248 1.875 1.22811 1.92891 1.19061 2.01328C1.15311 2.09766 1.16717 2.19609 1.22811 2.26406L3.10311 4.37344C3.14764 4.425 3.21326 4.45312 3.27889 4.45312H3.28123ZM2.93905 3.48047L1.92889 2.34375H2.34373C2.41873 2.34375 2.48905 2.30859 2.53358 2.24531C2.57811 2.18437 2.58983 2.10469 2.56639 2.03438L2.20076 0.9375H3.11951L3.64686 2.34375H3.04686C2.97889 2.34375 2.91326 2.37422 2.86873 2.42344C2.8242 2.475 2.80311 2.54297 2.81483 2.61094L2.93905 3.48047Z" fill="#EE832E"/>
</svg>
