<svg width="15" height="17" viewBox="0 0 15 17" fill="none" xmlns="http://www.w3.org/2000/svg">
<path d="M14.523 10.0384L13.1099 7.97939C13.0704 5.3055 11.2004 2.96444 8.6337 2.39187C8.48139 2.35802 8.3319 2.45392 8.29805 2.60623C8.2642 2.75854 8.3601 2.90803 8.51241 2.94187C10.8507 3.46368 12.5486 5.62141 12.5486 8.06683C12.5486 8.12324 12.5656 8.17965 12.5994 8.2276L14.0605 10.3571C14.1084 10.4276 14.1197 10.5151 14.0887 10.5969C14.0605 10.673 13.9984 10.7294 13.9194 10.7492L12.4866 11.113C12.3625 11.1441 12.275 11.2569 12.275 11.3866V13.0479C12.275 13.4513 12.1002 13.8292 11.7927 14.0831C11.4994 14.3285 11.113 14.4272 10.7407 14.3595L9.62371 14.1536C9.47705 14.1254 9.3332 14.2185 9.29935 14.3651L9.06242 15.3354C8.91575 15.939 8.38549 16.3621 7.77625 16.3621H4.91056C4.39158 16.3621 3.92054 16.1167 3.6131 15.688C3.2972 15.2452 3.2154 14.6923 3.3931 14.1733L4.04747 12.2723C4.08414 12.1651 4.05311 12.0495 3.97131 11.9733C2.93335 11.02 2.32411 9.71968 2.26205 8.3094C2.25641 8.15427 2.11256 8.02734 1.96872 8.03863C1.81359 8.04427 1.6923 8.17683 1.69794 8.33196C1.76564 9.82968 2.38616 11.2174 3.45233 12.2582L2.85719 13.9872C2.62309 14.6698 2.73309 15.4285 3.15053 16.0123C3.56233 16.5906 4.2026 16.9206 4.90492 16.9206H7.77061C8.64216 16.9206 9.39525 16.3226 9.60397 15.4652L9.77884 14.7544L10.6335 14.9123C11.1722 15.011 11.725 14.8672 12.1509 14.5146C12.5853 14.1536 12.8363 13.6177 12.8363 13.0451V11.6038L14.0548 11.2936C14.3115 11.2287 14.5202 11.0425 14.6133 10.7943C14.7092 10.5433 14.6725 10.2584 14.5202 10.0384H14.523Z" fill="#007D8F"/>
<path d="M1.88929 5.45425L1.88936 5.45431C2.59194 6.0428 3.52676 6.09574 3.85006 6.09574H3.85036H3.85066H3.85095H3.85125H3.85155H3.85184H3.85213H3.85243H3.85272H3.85302H3.85331H3.8536H3.85389H3.85418H3.85448H3.85477H3.85506H3.85535H3.85563H3.85592H3.85621H3.8565H3.85679H3.85707H3.85736H3.85765H3.85793H3.85822H3.8585H3.85879H3.85907H3.85935H3.85964H3.85992H3.8602H3.86048H3.86076H3.86104H3.86132H3.8616H3.86188H3.86216H3.86244H3.86272H3.863H3.86327H3.86355H3.86383H3.8641H3.86438H3.86465H3.86493H3.8652H3.86548H3.86575H3.86602H3.86629H3.86657H3.86684H3.86711H3.86738H3.86765H3.86792H3.86819H3.86846H3.86873H3.86899H3.86926H3.86953H3.86979H3.87006H3.87033H3.87059H3.87086H3.87112H3.87139H3.87165H3.87191H3.87218H3.87244H3.8727H3.87296H3.87322H3.87348H3.87374H3.874H3.87426H3.87452H3.87478H3.87504H3.87529H3.87555H3.87581H3.87607H3.87632H3.87658H3.87683H3.87709H3.87734H3.87759H3.87785H3.8781H3.87835H3.8786H3.87886H3.87911H3.87936H3.87961H3.87986H3.88011H3.88036H3.88061H3.88085H3.8811H3.88135H3.8816H3.88184H3.88209H3.88233H3.88258H3.88283H3.88307H3.88331H3.88356H3.8838H3.88404H3.88429H3.88453H3.88477H3.88501H3.88525H3.88549H3.88573H3.88597H3.88621H3.88645H3.88669H3.88692H3.88716H3.8874H3.88763H3.88787H3.88811H3.88834H3.88858H3.88881H3.88904H3.88928H3.88951H3.88974H3.88998H3.89021H3.89044H3.89067H3.8909H3.89113H3.89136H3.89159H3.89182H3.89205H3.89228H3.8925H3.89273H3.89296H3.89319H3.89341H3.89364H3.89386H3.89409H3.89431H3.89454H3.89476H3.89498H3.89521H3.89543H3.89565H3.89587H3.89609H3.89631H3.89653H3.89675H3.89697H3.89719H3.89741H3.89763H3.89785H3.89807H3.89828H3.8985H3.89872H3.89893H3.89915H3.89936H3.89958H3.89979H3.90001H3.90022H3.90043H3.90065H3.90086H3.90107H3.90128H3.90149H3.9017H3.90191H3.90212H3.90233H3.90254H3.90275H3.90296H3.90317H3.90337H3.90358H3.90379H3.904H3.9042H3.90441H3.90461H3.90482H3.90502H3.90522H3.90543H3.90563H3.90583H3.90604H3.90624H3.90644H3.90664H3.90684H3.90704H3.90724H3.90744H3.90764H3.90784H3.90804H3.90824H3.90843H3.90863H3.90883H3.90903H3.90922H3.90942H3.90961H3.90981H3.91H3.9102H3.91039H3.91058H3.91078H3.91097H3.91116H3.91135H3.91154H3.91174H3.91193H3.91212H3.91231H3.9125H3.91268H3.91287H3.91306H3.91325H3.91344H3.91362H3.91381H3.914H3.91418H3.91437H3.91455H3.91474H3.91492H3.91511H3.91529H3.91547H3.91566H3.91584H3.91602H3.9162H3.91639H3.91657H3.91675H3.91693H3.91711H3.91729H3.91747H3.91764H3.91782H3.918H3.91818H3.91836H3.91853H3.91871H3.91888H3.91906H3.91924H3.91941H3.91959H3.91976H3.91993H3.92011H3.92028H3.92045H3.92063H3.9208H3.92097H3.92114H3.92131H3.92148H3.92165H3.92182H3.92199H3.92216H3.92233H3.9225H3.92266H3.92283H3.923H3.92317H3.92333H3.9235H3.92366H3.92383H3.92399H3.92416H3.92432H3.92449H3.92465H3.92481H3.92497H3.92514H3.9253H3.92546H3.92562H3.92578H3.92594H3.9261H3.92626H3.92642H3.92658H3.92674H3.9269H3.92706H3.92721H3.92737H3.92753H3.92768H3.92784H3.92799H3.92815H3.9283H3.92846H3.92861H3.92877H3.92892H3.92907H3.92923H3.92938H3.92953H3.92968H3.92983H3.92999H3.93014H3.93029H3.93044H3.93059H3.93073H3.93088H3.93103H3.93118H3.93133H3.93148H3.93162H3.93177H3.93192H3.93206H3.93221H3.93235H3.9325H3.93264H3.93279H3.93293H3.93307H3.93322H3.93336H3.9335H3.93364H3.93378H3.93393H3.93407H3.93421H3.93435H3.93449H3.93463H3.93477H3.9349H3.93504H3.93518H3.93532H3.93546H3.93559H3.93573H3.93587H3.936H3.93614H3.93627H3.93641H3.93654H3.93668H3.93681H3.93695H3.93708H3.93721H3.93734H3.93748H3.93761H3.93774H3.93787H3.938H3.93813H3.93826H3.93839H3.93852H3.93865H3.93878H3.93891H3.93903H3.93916H3.93929H3.93942H3.93954H3.93967H3.9398H3.93992H3.94005H3.94017H3.9403H3.94042H3.94054H3.94067H3.94079H3.94091H3.94104H3.94116H3.94128H3.9414H3.94152H3.94164H3.94176H3.94188H3.942H3.94212H3.94224H3.94236H3.94248H3.9426H3.94272H3.94283H3.94295H3.94307H3.94318H3.9433H3.94342H3.94353H3.94365H3.94376H3.94388H3.94399H3.9441H3.94422H3.94433H3.94444H3.94456H3.94467H3.94478H3.94489H3.945H3.94511H3.94522H3.94533H3.94544H3.94555H3.94566H3.94577H3.94588H3.94599H3.9461H3.9462H3.94631H3.94642H3.94652H3.94663H3.94674H3.94684H3.94695H3.94705H3.94716H3.94726H3.94736H3.94747H3.94757H3.94767H3.94778H3.94788H3.94798H3.94808H3.94818H3.94828H3.94838H3.94848H3.94858H3.94868H3.94878H3.94888H3.94898H3.94908H3.94918H3.94928H3.94938H3.94949H3.94959H3.94969H3.94979H3.94989H3.95H3.9501H3.9502H3.95031H3.95041H3.95052H3.95062H3.95073H3.95083H3.95094H3.95104H3.95115H3.95126H3.95136H3.95147H3.95158H3.95169H3.9518H3.9519H3.95201H3.95212H3.95223H3.95234H3.95245H3.95256H3.95268H3.95279H3.9529H3.95301H3.95312H3.95324H3.95335H3.95346H3.95358H3.95369H3.9538H3.95392H3.95403H3.95415H3.95427H3.95438H3.9545H3.95462H3.95473H3.95485H3.95497H3.95509H3.9552H3.95532H3.95544H3.95556H3.95568H3.9558H3.95592H3.95604H3.95616H3.95629H3.95641H3.95653H3.95665H3.95678H3.9569H3.95702H3.95715H3.95727H3.95739H3.95752H3.95764H3.95777H3.9579H3.95802H3.95815H3.95828H3.9584H3.95853H3.95866H3.95879H3.95892H3.95905H3.95917H3.9593H3.95943H3.95957H3.9597H3.95983H3.95996H3.96009H3.96022H3.96036H3.96049H3.96062H3.96075H3.96089H3.96102H3.96116H3.96129H3.96143H3.96156H3.9617H3.96184H3.96197H3.96211H3.96225H3.96238H3.96252H3.96266H3.9628H3.96294H3.96308H3.96322H3.96336H3.9635H3.96364H3.96378H3.96392H3.96407H3.96421H3.96435H3.96449H3.96464H3.96478H3.96493H3.96507H3.96521H3.96536H3.96551H3.96565H3.9658H3.96594H3.96609H3.96624H3.96639H3.96653H3.96668H3.96683H3.96698H3.96713H3.96728H3.96743H3.96758H3.96773H3.96788H3.96803H3.96819H3.96834H3.96849H3.96865H3.9688H3.96895H3.96911H3.96926H3.96942H3.96957H3.96973H3.96988H3.97004H3.9702H3.97035H3.97051H3.97067H3.97083H3.97099H3.97114H3.9713H3.97146H3.97162H3.97178H3.97195H3.97211H3.97227H3.97243H3.97259H3.97275H3.97292H3.97308H3.97324H3.97341H3.97357H3.97374H3.9739H3.97407H3.97424H3.9744H3.97457H3.97474H3.9749H3.97507H3.97524H3.97541H3.97558H3.97575H3.97592H3.97609H3.97626H3.97643H3.9766H3.97677H3.97694H3.97711H3.97729H3.97746H3.97763H3.97781H3.97798H3.97816H3.97833H3.97851H3.97868H3.97886H3.97903H3.97921H3.97939H3.97957H3.97974H3.97992H3.9801H3.98028H3.98046H3.98064H3.98082H3.981H3.98118H3.98136H3.98154H3.98173H3.98191H3.98209H3.98228H3.98246H3.98264H3.98283H3.98301H3.9832H3.98338H3.98357H3.98376H3.98394H3.98413H3.98432H3.98451H3.98469H3.98488H3.98507H3.98526H3.98545H3.98564H3.98583H3.98602H3.98621H3.98641H3.9866H3.98679H3.98698H3.98718H3.98737H3.98756H3.98776H3.98795H3.98815H3.98835H3.98854H3.98874H3.98893H3.98913H3.98933H3.98953H3.98973H3.98992H3.99012H3.99032H3.99052H3.99072H3.99093H3.99113H3.99133H3.99153H3.99173H3.99194H3.99214H3.99234H3.99255H3.99275H3.99295H3.99316H3.99337H3.99357H3.99378H3.99398H3.99419H3.9944H3.99461H3.99482H3.99502H3.99523H3.99544H3.99565H3.99586H3.99607H3.99629H3.9965H3.99671H3.99692H3.99713H3.99735H3.99756H3.99777H3.99799H3.9982H3.99842H3.99863H3.99885H3.99907H3.99928H3.9995H3.99972H3.99994H4.00015H4.00037H4.00059H4.00081H4.00103H4.00125H4.00147H4.00169H4.00192H4.00214H4.00236H4.00258H4.00281H4.00303H4.00325H4.00348H4.0037H4.00393H4.00416H4.00438H4.00461H4.00483H4.00506H4.00529H4.00552H4.00575H4.00598H4.00621H4.00643H4.00667H4.0069H4.00713H4.00736H4.00759H4.00782H4.00806H4.00829H4.00852H4.00876H4.00899H4.00923H4.00946H4.0097H4.00993H4.01017H4.01041H4.01064H4.01088H4.01112H4.01136H4.0116H4.01184H4.01208H4.01232H4.01256H4.0128H4.01304H4.01328H4.01352H4.01377H4.01401H4.01425H4.0145H4.01474H4.01499H4.01523H4.01548H4.01572H4.01597H4.01622H4.01646H4.01671H4.01696H4.01721H4.01746H4.01771H4.01796H4.01821H4.01846H4.01871H4.01896H4.01921H4.01947H4.01972H4.01997H4.02023H4.02048H4.02073H4.02099H4.02125H4.0215H4.02176H4.02201H4.02227H4.02253H4.02279H4.02305H4.0233H4.02356H4.02382H4.02408H4.02434H4.02461H4.02487H4.02513H4.02539H4.02565H4.02592H4.02618H4.02645H4.02671H4.02697H4.02724H4.02751H4.02777H4.02804H4.02831H4.02857H4.02884H4.02911H4.02938H4.02965H4.02992H4.03019H4.03046H4.03073H4.031H4.03127H4.03155H4.03182H4.03209H4.03236H4.03264H4.03291H4.03319H4.03346H4.03374H4.03402H4.03429H4.03457H4.03485H4.03513H4.0354H4.03568H4.03596H4.03624H4.03652H4.0368H4.03708H4.03737H4.03765H4.03793H4.03821H4.0385H4.03878H4.03906H4.03935H4.03963H4.03992H4.04021H4.04049H4.04078H4.04107H4.04136H4.04164H4.04193H4.04222H4.04251H4.0428H4.04309H4.04338H4.04367H4.04397H4.04426H4.04455H4.04484H4.04514H4.04543H4.04573H4.04602H4.04632H4.04661H4.04691H4.04721H4.0475C4.37081 6.09574 5.30563 6.0428 6.00821 5.45431L6.00828 5.45425C6.43803 5.09386 6.68343 4.61624 6.8217 4.23031C6.95498 3.85834 6.99311 3.55922 6.99766 3.50602C7.00963 3.39246 6.97661 3.27264 6.90056 3.18316L6.90015 3.18269C6.82456 3.0945 6.71763 3.0379 6.59991 3.02918L6.59991 3.02918L6.5988 3.0291C6.55429 3.02614 5.77695 2.97962 5.03234 3.33514C4.83254 2.55837 4.31774 2.00066 4.26606 1.94466C4.26463 1.94312 4.26356 1.94196 4.26285 1.94118L4.26288 1.94116L4.26068 1.93885C4.09717 1.7665 3.80039 1.7665 3.63688 1.93885L3.63686 1.93882L3.63471 1.94118C3.63401 1.94196 3.63293 1.94312 3.63151 1.94466C3.57982 2.00066 3.06502 2.55838 2.86522 3.33517C2.52092 3.17091 2.17096 3.09361 1.89211 3.05751C1.72765 3.03622 1.58626 3.02905 1.48294 3.02721C1.39243 3.02559 1.31308 3.02843 1.30874 3.02874V3.02836L1.29766 3.02918C1.17994 3.0379 1.07301 3.0945 0.997411 3.18269L0.997009 3.18316C0.920954 3.27264 0.887933 3.39246 0.899906 3.50601C0.904454 3.5592 0.942582 3.85833 1.07586 4.23031C1.21414 4.61624 1.45954 5.09386 1.88929 5.45425ZM3.7457 2.04208C3.85006 1.93208 4.0475 1.93208 4.15186 2.04208C4.15254 2.04283 4.15355 2.04392 4.15487 2.04536C4.20518 2.09995 4.71191 2.64981 4.89533 3.4055L3.7457 2.04208ZM3.94878 0.15C6.04341 0.15 7.74757 1.85415 7.74757 3.94878C7.74757 6.04341 6.04341 7.74757 3.94878 7.74757C1.85415 7.74757 0.15 6.04341 0.15 3.94878C0.15 1.85415 1.85415 0.15 3.94878 0.15Z" stroke="#EE832E" stroke-width="0.3"/>
<path d="M2.92492 4.2139C2.53004 3.88107 2.00824 3.77953 1.67542 3.75133C1.76003 4.07569 1.95183 4.57493 2.34671 4.90493C2.65697 5.16443 3.04621 5.28289 3.36211 5.33648C3.19006 5.05442 3.01518 4.67365 2.95595 4.2421C2.94467 4.23364 2.93338 4.22236 2.92492 4.2139ZM6.22498 3.75133C5.88933 3.78235 5.36471 3.88107 4.96983 4.2139C4.96137 4.22236 4.9529 4.23364 4.94162 4.2421C4.88239 4.67365 4.70752 5.05442 4.53546 5.33648C4.85136 5.28289 5.2406 5.16443 5.55086 4.90493C5.94856 4.57211 6.13754 4.07569 6.22498 3.75133ZM4.40008 3.94877C4.40008 3.4326 4.14058 2.96721 3.94879 2.6908C3.75699 2.96721 3.4975 3.4326 3.4975 3.94877C3.4975 4.46493 3.75699 4.93032 3.94879 5.20673C4.14058 4.93032 4.40008 4.46493 4.40008 3.94877Z" fill="#007D8F"/>
</svg>
